# xmcd CD database file
#
# Track frame offsets:
#	150
#	17380
#	32755
#	43512
#	57845
#	68917
#	82685
#	93980
#	105710
#	115510
#
# Disc length: 1704 seconds
#
# Revision: 0
# Processed by: cddbd v1.5.2PL0 Copyright (c) Steve Scherf et al.
# Submitted via: CDex 1.51
#
DISCID=6a06a60a
DTITLE=Jimmy Witherspoon - The Blues Collection
DYEAR=1991
DGENRE=Blues
TTITLE0=Ain't Nobody's Business
TTITLE1=No Rolling Blues
TTITLE2=Big Fine Girl
TTITLE3=Falling by Degrees
TTITLE4=New Orleans Woman
TTITLE5=I Done Found Out
TTITLE6=Sweet Lovin' Baby
TTITLE7=Fickle Woman
TTITLE8=Have a Ball
TTITLE9=Good Jumpin'
EXTD=YEAR: 1991
EXTT0=
EXTT1=
EXTT2=
EXTT3=
EXTT4=
EXTT5=
EXTT6=
EXTT7=
EXTT8=
EXTT9=
PLAYORDER=
